<svg width="181" height="48" viewBox="0 0 181 48" fill="none" xmlns="http://www.w3.org/2000/svg">
<path d="M23.5462 22.032C23.4761 21.9613 23.3359 21.9613 23.2658 22.032L21.8637 23.4442C21.7936 23.5148 21.7936 23.6561 21.8637 23.7267L29.7154 31.6354C31.1175 33.0476 31.1175 35.3073 29.7154 36.7195C28.3133 38.1318 26.07 38.1318 24.6679 36.7195C23.2658 35.3073 23.2658 33.0476 24.6679 31.6354L25.7896 30.5056C25.8597 30.4349 25.8597 30.2937 25.7896 30.2231L24.3875 28.8108C24.3174 28.7402 24.1772 28.7402 24.1071 28.8108L22.9854 29.9407C20.672 32.2709 20.672 36.084 22.9854 38.4143C25.2989 40.7445 29.0845 40.7445 31.3979 38.4143C33.7114 36.084 33.7114 32.2709 31.3979 29.9407L23.5462 22.032Z" fill="#1C293F"/>
<path d="M37.2166 7.13254C37.7774 7.55622 38.4084 7.62683 38.8991 7.13254C39.3898 6.63824 39.3898 5.8615 38.8991 5.43782C29.5752 -2.32965 15.6946 -1.76474 7.00164 7.06192C-0.850037 14.9706 -2.11191 27.0455 3.28611 36.2252C4.26757 37.9906 5.52945 37.2844 6.3006 36.5783L24.6679 18.1482C26.9814 15.818 26.9814 12.0049 24.6679 9.67462C22.3545 7.34438 18.5688 7.34438 16.2554 9.67462C13.942 12.0049 13.942 15.818 16.2554 18.1482L17.7977 19.7017C17.8678 19.7723 18.008 19.7723 18.0781 19.7017L19.4802 18.2894C19.5503 18.2188 19.5503 18.0776 19.4802 18.007L17.9379 16.4535C16.5358 15.0412 16.5358 12.7816 17.9379 11.3693C19.34 9.95707 21.5833 9.95707 22.9854 11.3693C24.3875 12.7816 24.3875 15.0412 22.9854 16.4535L5.03872 34.4599C0.552048 26.2688 1.74382 15.6768 8.68414 8.75664C16.4657 0.847949 28.8041 0.353656 37.2166 7.13254Z" fill="#1C293F"/>
<path d="M44.3672 11.793C43.3857 10.0277 42.1238 10.6632 41.3527 11.4399L28.1731 24.7152C28.103 24.7859 28.103 24.9271 28.1731 24.9977L29.5752 26.41C29.6453 26.4806 29.7855 26.4806 29.8556 26.41L42.6146 13.5583C47.1012 21.7495 45.9095 32.3415 38.9691 39.2616C30.6267 47.6646 17.0265 47.6646 8.61399 39.2616C8.51822 39.1651 8.43175 39.0774 8.35332 38.9979C7.84769 38.4852 7.67588 38.311 7.4974 38.3038C7.40553 38.3001 7.31189 38.3406 7.17006 38.402C7.16085 38.406 7.15143 38.4101 7.1418 38.4142C6.86138 38.4849 6.30055 38.6967 5.80982 38.9085C5.5995 38.9791 5.24898 39.1204 5.45929 39.3322C5.87992 39.8971 6.37065 40.3914 6.93148 40.9563C16.2554 50.3479 31.3979 50.3479 40.7217 40.9563C48.5734 33.0476 49.7652 21.0433 44.3672 11.793Z" fill="#1C293F"/>
<path d="M66.0991 13.2053C61.6124 13.2053 58.3876 16.8065 58.3876 21.0433C58.3876 25.4214 61.4722 28.8108 66.1692 28.7402C68.8332 28.7402 70.9363 27.681 72.4085 26.41V20.0548H66.029V22.385H69.8847V25.2095C68.9033 25.9157 67.6414 26.3393 66.2393 26.3393C63.1547 26.3393 61.1217 24.0797 61.1217 20.9727V20.9021C61.1217 18.007 63.2248 15.6061 65.9589 15.6061C67.8517 15.6061 69.0435 16.2416 70.1651 17.2302L71.8476 15.253C70.3053 13.9114 68.6929 13.2053 66.0991 13.2053Z" fill="#1C293F"/>
<path fill-rule="evenodd" clip-rule="evenodd" d="M83.4849 13.2053C78.8581 13.2053 75.6333 16.7359 75.6333 21.0433C75.6333 25.2801 78.788 28.8814 83.4148 28.8814C88.0417 28.8814 91.2665 25.2801 91.2665 21.0433V20.9727C91.2665 16.7359 88.1118 13.2053 83.4849 13.2053ZM83.4148 15.6061C86.4293 15.6061 88.5324 18.0776 88.5324 21.0433C88.5324 24.0091 86.4293 26.41 83.4849 26.3393C80.4705 26.3393 78.3673 23.9385 78.3673 20.9727V20.9021C78.3673 18.007 80.4004 15.6061 83.4148 15.6061Z" fill="#1C293F"/>
<path fill-rule="evenodd" clip-rule="evenodd" d="M102.063 13.2053C97.4357 13.2053 94.2109 16.7359 94.2109 21.0433C94.2109 25.2801 97.4357 28.8108 101.992 28.8814C106.619 28.8814 109.844 25.2801 109.844 21.0433V20.9727C109.844 16.7359 106.689 13.2053 102.063 13.2053ZM102.063 15.6061C105.077 15.6061 107.18 18.0776 107.18 21.0433C107.18 24.0091 105.077 26.41 102.133 26.3393C99.1182 26.3393 97.0151 23.9385 97.0151 20.9727V20.9021C97.0151 18.007 99.1182 15.6061 102.063 15.6061Z" fill="#1C293F"/>
<path fill-rule="evenodd" clip-rule="evenodd" d="M119.378 13.4877H113.77V28.599H119.378C124.145 28.599 127.37 25.2801 127.37 21.0433V20.9727C127.37 16.7359 124.075 13.4877 119.378 13.4877ZM124.496 21.0433C124.496 24.0091 122.463 26.1275 119.308 26.1275H116.364V15.818H119.308C122.463 15.818 124.496 18.007 124.496 20.9727V21.0433Z" fill="#1C293F"/>
<path d="M133.89 13.4877H131.296V28.5284H141.742V26.1275H133.89V13.4877Z" fill="#1C293F"/>
<path d="M148.962 13.4877H146.298V28.599H148.962V13.4877Z" fill="#1C293F"/>
<path d="M165.787 13.4877H154.641V28.5284H157.305V22.385H164.806V19.9841H157.305V15.8886H165.787V13.4877Z" fill="#1C293F"/>
<path d="M180.86 13.4877H169.783V28.5284H181V26.1981H172.447V22.1025H179.948V19.7723H172.447V15.818H180.86V13.4877Z" fill="#1C293F"/>
<path d="M59.9299 34.8836H59.2289L61.1918 40.3914H61.6825L63.1547 35.9428L64.697 40.3914H65.1877L67.1506 34.8836H66.4496L64.9073 39.4734L63.4351 34.8836H62.9444L61.4722 39.4734L59.9299 34.8836Z" fill="#1C293F"/>
<path fill-rule="evenodd" clip-rule="evenodd" d="M70.726 34.8129C69.0435 34.8129 67.9218 36.084 67.9218 37.6375C67.9218 39.1204 68.9734 40.462 70.6559 40.462C72.3384 40.462 73.46 39.1204 73.46 37.6375C73.46 36.084 72.4085 34.8129 70.726 34.8129ZM70.6559 35.3779C71.8476 35.3779 72.759 36.3664 72.759 37.6375C72.759 38.9085 71.8476 39.8971 70.6559 39.8971C69.4641 39.8971 68.5527 38.9085 68.5527 37.6375C68.5527 36.3664 69.394 35.3779 70.6559 35.3779Z" fill="#1C293F"/>
<path fill-rule="evenodd" clip-rule="evenodd" d="M77.1055 34.8836H74.792V40.3914H75.423V38.273H76.9652L78.5075 40.3914H79.2787L77.5962 38.1318C78.4374 37.9199 79.0684 37.4256 79.0684 36.5077C79.0684 36.084 78.9282 35.7309 78.6478 35.4485C78.2972 35.0954 77.7364 34.8836 77.1055 34.8836ZM78.4374 36.5783C78.4374 37.2844 77.8766 37.7081 77.0354 37.7081H75.3529V35.5191H77.0354C77.9467 35.5191 78.4374 35.9428 78.4374 36.5783Z" fill="#1C293F"/>
<path d="M81.3818 34.8836H80.821V40.3914H81.3818V38.9085L82.5736 37.7081L84.6767 40.3914H85.3778L82.9942 37.2844L85.3077 34.8836H84.5365L81.3818 38.1318V34.8836Z" fill="#1C293F"/>
<path d="M86.7097 39.1204L86.3592 39.544C86.9902 40.1796 87.6912 40.462 88.5324 40.462C89.584 40.462 90.3552 39.8265 90.3552 38.9085C90.3552 38.0612 89.7943 37.6375 88.6026 37.355C87.4108 37.0726 87.1304 36.7901 87.1304 36.2958C87.1304 35.8721 87.551 35.4485 88.252 35.4485C88.8129 35.4485 89.3036 35.5897 89.7943 36.0134L90.1449 35.5191C89.584 35.0954 89.0232 34.8836 88.252 34.8836C87.2706 34.8836 86.4994 35.5191 86.4994 36.3664C86.4994 37.2138 87.0603 37.6375 88.3221 37.9199C89.4438 38.2024 89.7242 38.4848 89.7242 38.9791C89.7242 39.4734 89.2335 39.8971 88.5324 39.8971C87.8314 39.8971 87.2706 39.6147 86.7097 39.1204Z" fill="#1C293F"/>
<path fill-rule="evenodd" clip-rule="evenodd" d="M94.1408 34.8836H92.1078V40.2502H92.7387V38.3436H94.0707C95.1924 38.3436 96.1738 37.7787 96.1738 36.5783C96.1738 35.5191 95.3326 34.8836 94.1408 34.8836ZM95.4728 36.6489C95.4728 37.355 94.9119 37.8493 94.0006 37.8493H92.5985V35.4485H94.0006C94.9119 35.4485 95.4728 35.8721 95.4728 36.6489Z" fill="#1C293F"/>
<path fill-rule="evenodd" clip-rule="evenodd" d="M99.6089 34.8836H99.0481L96.5944 40.3914H97.2254L97.8563 38.9791H100.801L101.432 40.3914H102.063L99.6089 34.8836ZM99.3285 35.5897L100.59 38.3436H98.0666L99.3285 35.5897Z" fill="#1C293F"/>
<path d="M105.638 34.8129C104.026 34.8129 102.904 36.084 102.904 37.6375C102.904 39.191 104.026 40.462 105.638 40.462C106.619 40.462 107.25 40.0383 107.811 39.4734L107.391 39.0498C106.9 39.544 106.409 39.8265 105.638 39.8265C104.446 39.8265 103.535 38.8379 103.535 37.5669C103.535 36.2958 104.446 35.3072 105.638 35.3072C106.339 35.3072 106.83 35.6603 107.32 36.084L107.741 35.6603C107.18 35.166 106.619 34.8129 105.638 34.8129Z" fill="#1C293F"/>
<path d="M112.999 34.8836H109.073V40.3914H113.069V39.8265H109.704V37.9199H112.648V37.355H109.704V35.4485H112.999V34.8836Z" fill="#1C293F"/>
<path fill-rule="evenodd" clip-rule="evenodd" d="M119.238 34.8836H117.345V40.3208H119.238C120.921 40.3208 122.112 39.1204 122.112 37.5669C122.112 36.084 120.921 34.8836 119.238 34.8836ZM121.481 37.7081C121.481 38.9085 120.64 39.8265 119.238 39.8265H117.976V35.5191H119.238C120.64 35.5191 121.481 36.5077 121.481 37.7081Z" fill="#1C293F"/>
<path d="M127.44 34.8836H123.514V40.3914H127.44V39.8265H124.075V37.9199H127.09V37.355H124.075V35.4485H127.44V34.8836Z" fill="#1C293F"/>
<path d="M129.053 39.1204L128.702 39.544C129.333 40.1796 130.034 40.462 130.875 40.462C131.927 40.462 132.698 39.8265 132.698 38.9085C132.698 38.0612 132.137 37.6375 130.946 37.355C129.754 37.0726 129.473 36.7901 129.473 36.2958C129.473 35.8721 129.894 35.4485 130.595 35.4485C131.156 35.4485 131.647 35.5897 132.137 36.0134L132.488 35.5191C131.927 35.0954 131.366 34.8836 130.595 34.8836C129.614 34.8836 128.842 35.5191 128.842 36.3664C128.842 37.2138 129.403 37.6375 130.665 37.9199C131.787 38.2024 132.067 38.4848 132.067 38.9791C132.067 39.4734 131.576 39.8971 130.875 39.8971C130.174 39.8971 129.614 39.6147 129.053 39.1204Z" fill="#1C293F"/>
<path d="M134.941 34.8836H134.311V40.3208H134.941V34.8836Z" fill="#1C293F"/>
<path d="M139.078 34.8129C137.465 34.8129 136.344 36.1546 136.344 37.6375C136.344 39.191 137.395 40.462 139.078 40.462C139.989 40.462 140.76 40.0383 141.251 39.6147V37.4256H139.008V37.9905H140.69V39.3322C140.34 39.6853 139.779 39.8971 139.148 39.8971C137.816 39.8971 136.975 38.9085 136.975 37.6375C136.975 36.3664 137.816 35.3779 139.008 35.3779C139.779 35.3779 140.269 35.6603 140.69 36.0134L141.111 35.5191C140.55 35.0954 139.989 34.8129 139.078 34.8129Z" fill="#1C293F"/>
<path d="M143.284 34.8836H142.723V40.3914H143.284V35.8721L146.789 40.3914H147.28V34.8836H146.719V39.2616L143.284 34.8836Z" fill="#1C293F"/>
</svg>
