<svg width="241" height="22" viewBox="0 0 241 22" fill="none" xmlns="http://www.w3.org/2000/svg">
<path d="M204.288 7.70955V9.80392H214.155V7.70955H204.288Z" fill="#181818"/>
<path fill-rule="evenodd" clip-rule="evenodd" d="M0.122147 10.8495C0.0862432 10.8776 0.0465211 10.9087 0 10.9398C0.0465203 10.971 0.0862419 11.0021 0.122146 11.0302C0.168132 11.0663 0.207855 11.0974 0.247578 11.1173C0.918691 11.5777 1.59046 12.0387 2.2628 12.5001C6.51566 15.4187 10.7913 18.3529 15.0669 21.2342C15.2438 21.3762 15.3499 21.3407 15.5267 21.2342C17.9848 19.548 20.4518 17.8707 22.9188 16.1935C25.3857 14.5162 27.8526 12.839 30.3107 11.1528C30.3504 11.1329 30.3901 11.1018 30.4361 11.0657C30.472 11.0376 30.5117 11.0065 30.5583 10.9753C30.5117 10.9442 30.472 10.9131 30.4361 10.885C30.3901 10.8489 30.3504 10.8178 30.3107 10.7979C25.3591 7.46107 20.4075 4.12428 15.456 0.751989C15.2791 0.645496 15.173 0.645496 14.9962 0.751989L0.247578 10.7624C0.207856 10.7823 0.168133 10.8134 0.122147 10.8495ZM17.9028 17.1907C17.9099 17.1791 17.9182 17.1655 17.9318 17.152C17.8964 17.081 17.8257 17.01 17.7549 16.939C17.1537 16.797 16.9768 16.584 16.9768 15.945V11.3303H19.9478C20.1953 12.8567 21.0442 13.9572 22.4589 14.6316C22.4124 14.6627 22.3727 14.6939 22.3368 14.722C22.2908 14.758 22.251 14.7892 22.2113 14.8091L15.5267 19.3883C15.3145 19.5303 15.2084 19.5303 14.9962 19.3883C12.8387 17.9329 10.6812 16.442 8.52377 14.9511C8.48841 14.9333 8.45304 14.9067 8.41767 14.8801C8.3823 14.8535 8.34693 14.8269 8.31156 14.8091C9.97773 13.3098 10.0806 12.9112 10.3069 12.0345C10.3592 11.8319 10.4181 11.6036 10.5044 11.3303H13.4753V15.9805C13.4753 16.6195 13.1924 16.939 12.485 17.01C12.5256 17.0506 12.5558 17.0913 12.5816 17.1261C12.6233 17.1823 12.6535 17.223 12.6972 17.223H17.861C17.8829 17.223 17.8912 17.2094 17.9028 17.1907ZM22.1052 7.10609C22.176 7.14159 22.2821 7.21258 22.3882 7.28358C21.1149 8.06453 20.0892 8.98747 20.0185 10.5139H16.9768V5.86367C16.9768 5.3667 17.2244 5.04722 17.6842 4.94073C17.8964 4.90523 17.9671 4.83423 17.8964 4.62125H12.5911V4.86973C12.6088 4.86973 12.6177 4.87861 12.6265 4.88748C12.6353 4.89635 12.6442 4.90523 12.6619 4.90523C13.3692 5.04722 13.5814 5.2957 13.5814 6.00566C13.5814 6.71561 13.5726 7.4167 13.5638 8.11778C13.5549 8.81886 13.5461 9.51994 13.5461 10.2299V10.5849H10.752C10.6105 10.5849 10.5044 10.5849 10.469 10.4074C10.2568 9.09396 9.62019 8.06453 8.45304 7.39007C8.3786 7.36517 8.32157 7.32279 8.25752 7.2752C8.23027 7.25496 8.20175 7.23377 8.17009 7.21258C8.62988 6.8931 9.0543 6.60912 9.47872 6.32514L14.9962 2.59787C15.173 2.49138 15.3145 2.45588 15.5267 2.59787C17.7195 4.08873 19.9125 5.57973 22.1052 7.10609ZM6.75513 13.7616C5.37426 12.8301 4.00713 11.9078 2.61726 10.9398C4.31492 9.83943 6.01264 8.73897 7.67493 7.63856C8.77135 8.70349 8.84209 13.2117 7.78104 14.4541C7.43786 14.2222 7.09608 13.9916 6.75513 13.7616ZM22.586 7.9863C22.6504 7.8249 22.7153 7.66224 22.7772 7.49657C23.8418 8.20177 24.8679 8.8941 25.8865 9.58131C26.5599 10.0357 27.23 10.4877 27.9056 10.9398C26.9452 11.5824 26.0075 12.225 25.0604 12.8741C24.3333 13.3723 23.6006 13.8744 22.848 14.3831C22.8142 14.2927 22.7804 14.2032 22.7469 14.1144C22.57 13.6456 22.401 13.1979 22.2821 12.7502C22.0345 11.5788 21.9284 10.3719 22.176 9.16496C22.2762 8.76267 22.4296 8.3782 22.586 7.9863Z" fill="#181818"/>
<path d="M82.0898 2.27857C82.0191 2.70454 81.9483 3.09502 81.8776 3.48549H84.6717C84.5302 4.01796 84.3887 4.55042 84.2826 5.04739C84.2287 5.22773 84.2022 5.31645 84.1428 5.3601C84.0853 5.40237 83.9969 5.40237 83.8228 5.40237H81.7715C81.6654 5.40237 81.5946 5.43787 81.5593 5.54436C81.4886 5.77492 81.4267 6.01435 81.3649 6.25378C81.303 6.49341 81.241 6.73352 81.1702 6.96427V7.10626H83.6106C83.4927 7.5559 83.3749 7.97399 83.257 8.39207C83.198 8.60109 83.1391 8.81018 83.0801 9.02314H80.8519C80.7458 9.02314 80.6751 9.05864 80.6751 9.16513C80.5868 9.50196 80.4896 9.84763 80.3925 10.1933L80.3921 10.1946C80.2949 10.5407 80.1976 10.8868 80.1092 11.224C80.0034 11.6133 79.8976 12.0113 79.7919 12.4094L79.7909 12.4132C79.6848 12.8125 79.5786 13.2119 79.4725 13.6024C79.3488 14.0816 79.2161 14.5519 79.0835 15.0223C78.9509 15.4926 78.8182 15.963 78.6944 16.4422C78.5706 16.8681 78.4557 17.2852 78.3408 17.7023C78.2258 18.1194 78.1109 18.5365 77.9871 18.9625C77.9517 19.069 77.881 19.069 77.7749 19.069H73.4953C74.0612 16.7617 74.6182 14.4543 75.1753 12.1469C75.7323 9.83962 76.2894 7.53221 76.8553 5.22488H72.5403C72.478 5.47531 72.4034 5.72574 72.3309 5.96896C72.2801 6.13944 72.2304 6.30639 72.1867 6.4673C72.0935 6.77899 72.0072 7.09067 71.9216 7.39935C71.8124 7.79378 71.7044 8.18331 71.5854 8.56167C71.4439 9.07639 71.3025 9.58223 71.161 10.0881C71.0195 10.5939 70.878 11.0998 70.7366 11.6145C70.6481 11.9162 70.5597 12.2268 70.4713 12.5374C70.3829 12.848 70.2945 13.1586 70.206 13.4604C70.206 13.4959 70.1353 13.5314 70.0999 13.5314H62.9909C63.0086 13.4604 63.0174 13.3894 63.0263 13.3184C63.0351 13.2474 63.0439 13.1764 63.0616 13.1054C63.3799 11.8985 63.6983 10.6915 64.0166 9.44912C64.158 8.8989 64.3084 8.34869 64.4587 7.79847C64.609 7.24825 64.7593 6.69804 64.9008 6.14782C65.0246 5.65086 65.1572 5.15389 65.2898 4.65692C65.4225 4.15995 65.5551 3.66298 65.6789 3.16601C65.7496 2.84653 65.8204 2.56255 65.9265 2.24307C65.9265 2.20757 65.9972 2.17207 66.0679 2.13658H81.8422C81.913 2.27857 81.9837 2.27857 82.0898 2.27857Z" fill="#181818"/>
<path d="M143.949 12.4664C143.312 14.5963 142.676 16.7262 142.039 18.8915H134.895L139.139 2.27857H146.283C146.23 2.47376 146.186 2.66896 146.142 2.86415C146.098 3.05943 146.053 3.25471 146 3.44999C145.859 4.03517 145.718 4.62921 145.576 5.22326L145.576 5.22479C145.435 5.81941 145.293 6.41403 145.152 6.99977L145.151 7.00197C145.045 7.42721 144.939 7.85251 144.833 8.31319C144.798 8.41968 144.798 8.49068 144.904 8.56167C145.187 8.7569 145.47 8.961 145.753 9.1651C146.036 9.36918 146.319 9.57339 146.602 9.7686L149.467 11.792C149.926 12.129 150.394 12.4571 150.863 12.7852L150.864 12.7859C151.332 13.1143 151.801 13.4426 152.261 13.7798C151.907 14.8803 151.518 15.9807 151.129 17.0811C150.506 16.6798 149.88 16.2759 149.253 15.871C147.494 14.7358 145.722 13.5915 143.949 12.4664Z" fill="#181818"/>
<path d="M102.886 6.11233H107.803C107.449 7.14176 107.131 8.1712 106.812 9.20063H102.32C102.179 9.20063 102.144 9.23613 102.108 9.37812C101.967 9.89121 101.826 10.4131 101.685 10.9351L101.684 10.94C101.542 11.4636 101.401 11.9872 101.259 12.5019C101.118 13.0165 100.985 13.5223 100.853 14.028L100.852 14.0298C100.72 14.5352 100.587 15.0405 100.446 15.5547C100.322 15.9804 100.207 16.4149 100.093 16.8495L100.092 16.8513C99.9772 17.2858 99.8623 17.7204 99.7386 18.1461C99.715 18.2407 99.6875 18.3354 99.66 18.43C99.605 18.6194 99.55 18.8087 99.5264 18.998C99.491 19.1045 99.4557 19.14 99.3496 19.14H92.4174C92.8418 17.4894 93.275 15.8387 93.7083 14.1881C94.1416 12.5374 94.5748 10.8868 94.9992 9.23613H89.8708C90.0123 8.72141 90.1449 8.20669 90.2776 7.69197C90.4102 7.17726 90.5428 6.66254 90.6843 6.14782H95.4944C95.6359 6.14782 95.7066 6.11233 95.742 5.97033C95.9667 5.01175 96.2138 4.05316 96.4654 3.07679L96.4687 3.06399C96.5328 2.81527 96.5972 2.56539 96.6616 2.31406H103.735C103.452 3.55649 103.169 4.83441 102.886 6.11233Z" fill="#181818"/>
<path d="M131.358 2.24307C131.287 2.65129 131.208 3.05064 131.128 3.44999L131.128 3.45172C131.048 3.8505 130.969 4.24928 130.898 4.65692L130.872 4.81729C130.809 5.19708 130.743 5.59732 130.651 5.97033C130.651 6.04133 130.58 6.11233 130.509 6.14782C129.979 6.39631 129.448 6.64479 128.917 6.85778C128.705 6.94651 128.484 7.04412 128.263 7.14173C128.042 7.23928 127.821 7.33707 127.609 7.42574C127.379 7.53224 127.14 7.63873 126.901 7.74523C126.663 7.85172 126.424 7.95821 126.194 8.0647C126.123 8.1002 126.088 8.1357 126.053 8.20669L125.628 9.80409C125.451 10.514 125.239 11.224 125.027 11.934C124.921 12.3422 124.806 12.7505 124.691 13.1588C124.576 13.5669 124.461 13.9751 124.355 14.3833C124.267 14.738 124.169 15.0927 124.072 15.4474C123.975 15.8023 123.878 16.1582 123.789 16.5132C123.683 16.9213 123.568 17.3384 123.453 17.7554C123.338 18.1726 123.223 18.5897 123.117 18.998C123.082 19.1045 123.046 19.14 122.94 19.14H115.973C116.256 17.9148 116.539 16.6984 116.822 15.4821C117.105 14.2668 117.388 13.0516 117.67 11.8275C116.15 12.4664 114.664 13.1053 113.179 13.7442C113.25 13.4957 113.285 13.2829 113.32 13.0699C113.462 12.4842 113.603 11.9073 113.744 11.3305C113.886 10.7537 114.027 10.1768 114.169 9.59111C114.204 9.44912 114.275 9.37812 114.381 9.34262L116.397 8.49068C117.034 8.24219 117.635 7.99371 118.272 7.70973L120.288 6.85778C120.571 6.73353 120.854 6.61816 121.137 6.50279C121.419 6.38742 121.702 6.27206 121.985 6.14782C122.14 6.08253 122.292 6.01723 122.444 5.95237C122.952 5.73518 123.449 5.52268 123.966 5.33137C124.249 5.20713 124.532 5.09175 124.815 4.97638C125.098 4.86102 125.381 4.74566 125.664 4.62142C126 4.47943 126.327 4.33744 126.654 4.19545C126.981 4.05346 127.308 3.91147 127.644 3.76947C127.909 3.66304 128.183 3.54774 128.457 3.43244L128.459 3.43181C128.732 3.31658 129.006 3.20137 129.271 3.09502C129.625 2.95302 129.97 2.81103 130.315 2.66904C130.659 2.52705 131.004 2.38506 131.358 2.24307Z" fill="#181818"/>
<path d="M174.26 18.5365C173.34 17.5071 172.456 16.5132 171.536 15.4482V18.9625H168V15.3062C167.198 16.0162 166.428 16.7262 165.657 17.4362C165.272 17.7911 164.887 18.1461 164.498 18.501C164.498 18.4833 164.489 18.4655 164.48 18.4478C164.472 18.4301 164.463 18.4123 164.463 18.3946V14.6318C164.463 14.5608 164.498 14.4898 164.533 14.4543C164.745 14.224 164.966 13.9936 165.187 13.7633L165.188 13.7621C165.409 13.5314 165.63 13.3006 165.842 13.0699C166.019 12.8747 166.196 12.6884 166.372 12.5021C166.549 12.3157 166.726 12.1292 166.903 11.934C167.062 11.7565 167.23 11.5791 167.398 11.4016C167.566 11.2241 167.734 11.0466 167.893 10.869C167.929 10.8335 167.964 10.7625 167.964 10.6915V10.3366H164.463V7.95821H167.964V5.89934C167.752 6.0413 167.549 6.18326 167.345 6.32522C167.142 6.46724 166.939 6.60926 166.726 6.75129C166.514 6.91103 166.293 7.06189 166.072 7.21276C165.851 7.36362 165.63 7.51449 165.418 7.67423C165.382 7.70973 165.312 7.70973 165.276 7.70973H164.463V4.9054C164.463 4.79891 164.498 4.72791 164.569 4.65692L167.221 2.84653C167.398 2.70454 167.61 2.56255 167.787 2.45606C167.893 2.38506 168.035 2.34956 168.176 2.34956H171.572V4.33744H174.189V6.71579H171.713C171.572 6.71579 171.536 6.75129 171.536 6.89328V7.78072C171.536 7.92271 171.572 7.95821 171.713 7.95821H174.437V10.2301H171.572C171.73 10.4284 171.866 10.6157 171.998 10.7981L171.999 10.7989C172.103 10.9426 172.205 11.0834 172.314 11.224C172.562 11.5435 172.801 11.863 173.039 12.1824C173.278 12.5019 173.517 12.8214 173.765 13.1409L174.189 13.6734C174.224 13.7443 174.26 13.8153 174.26 13.8863V18.5365Z" fill="#181818"/>
<path d="M196.365 7.24825H192.262C193.046 9.58659 193.817 11.9249 194.59 14.2709L194.592 14.2748C195.109 15.845 195.628 17.4187 196.153 18.998H191.767C191.661 18.998 191.59 18.998 191.555 18.856C191.307 18.0754 191.025 17.2948 190.742 16.5142L190.741 16.5132C190.527 15.8665 190.299 15.2199 190.074 14.5812C189.928 14.1681 189.784 13.7582 189.645 13.3539C189.468 12.8215 189.282 12.2892 189.097 11.7568L189.096 11.7541C188.911 11.2224 188.725 10.6907 188.549 10.1591C188.389 9.69789 188.23 9.24557 188.071 8.79326C187.912 8.34065 187.753 7.88723 187.594 7.42574C187.558 7.28375 187.487 7.28375 187.346 7.28375H179.176V4.51493H186.709C186.586 4.1422 186.471 3.77835 186.356 3.4145C186.241 3.05064 186.126 2.68679 186.002 2.31406H190.14C190.282 2.31406 190.352 2.34956 190.388 2.45606L191.024 3.84047L191.343 4.47943H191.802C191.838 4.47943 191.909 4.44393 191.944 4.40843C192.103 4.12536 192.261 3.83346 192.42 3.54154L192.421 3.53874C192.581 3.24588 192.74 2.95302 192.899 2.66904C192.924 2.59432 192.966 2.53708 193.013 2.47278C193.033 2.44545 193.055 2.41683 193.076 2.38506C193.111 2.34958 193.146 2.31406 193.182 2.31406H195.693L195.728 2.34956C195.498 2.81268 195.252 3.27579 195.001 3.74876L194.998 3.75333C194.865 4.00393 194.731 4.25731 194.597 4.51493H196.436C196.365 5.40237 196.365 6.32531 196.365 7.24825Z" fill="#181818"/>
<path fill-rule="evenodd" clip-rule="evenodd" d="M204.146 13.5314H200.68V11.011H218.152V13.5314H215.322C216.03 15.3772 216.702 17.1521 217.374 18.998H201.67C202.484 17.1521 203.297 15.3772 204.146 13.5314ZM211.29 16.3712V16.3002C211.114 15.8565 210.937 15.404 210.76 14.9514C210.583 14.4989 210.406 14.046 210.229 13.6024C210.194 13.5669 210.123 13.4959 210.088 13.4959H209.38C209.274 13.4959 209.204 13.5314 209.204 13.6379C209.062 14.0105 208.93 14.3831 208.797 14.7558C208.664 15.1286 208.532 15.5014 208.39 15.8742C208.36 15.9508 208.336 16.0274 208.313 16.1012C208.282 16.1982 208.253 16.2905 208.213 16.3712H211.29Z" fill="#181818"/>
<path d="M229.859 2.27857V4.51493H233.219C233.152 4.60408 233.099 4.69324 233.052 4.77361C233.024 4.82124 232.997 4.86578 232.971 4.9054C232.511 5.54436 232.052 6.18332 231.627 6.78678C231.344 7.17726 231.07 7.55886 230.796 7.94046C230.522 8.32206 230.248 8.70366 229.965 9.09414C229.894 9.16513 229.894 9.23613 229.965 9.30713L230.814 10.0526C230.914 10.1403 231.014 10.2237 231.112 10.3057C231.292 10.4559 231.467 10.6019 231.627 10.7625C231.733 10.869 231.839 10.9755 231.981 11.0465C232.087 11.1175 232.122 11.1885 232.122 11.3305V15.0223C231.734 14.7208 231.363 14.4282 230.992 14.1356L230.989 14.1337C230.618 13.8412 230.247 13.5487 229.859 13.2474V18.9625H226.676V13.0344L223.422 16.3002C223.422 16.3002 223.386 16.3002 223.386 16.2647V10.7625C223.386 10.585 223.422 10.4076 223.563 10.2656C223.705 10.0881 223.846 9.91946 223.988 9.75085C224.129 9.58223 224.271 9.41362 224.412 9.23613C224.766 8.81036 225.12 8.38396 225.473 7.92271C225.579 7.81622 225.685 7.67423 225.791 7.53224H223.492V4.44393H226.711V2.20757C227.737 2.27857 228.762 2.27857 229.859 2.27857Z" fill="#181818"/>
<path d="M234.245 2.2785H238.171V6.39625C238.171 6.64473 238.171 6.64473 238.418 6.64473H240.823V9.41356H238.171V16.0161C238.171 16.2291 238.171 16.2291 238.383 16.2291H241V18.998H230.46V16.2291H234.28V9.41356H232.264V6.64473H234.315C234.245 5.18932 234.245 3.73391 234.245 2.2785Z" fill="#181818"/>
<path d="M162.836 18.998H159.83V13.3893C159.83 13.3893 159.794 13.3893 159.794 13.3538C159.429 13.7797 159.063 14.2017 158.698 14.6236C157.967 15.4677 157.236 16.3119 156.505 17.1876V12.3599C156.505 12.1469 156.54 12.0049 156.682 11.8274C156.947 11.4902 157.212 11.1618 157.478 10.8334L157.479 10.8313C157.744 10.5037 158.009 10.176 158.273 9.83953C158.769 9.20057 159.264 8.56161 159.794 7.88715H156.682V5.26032H159.653C159.794 5.26032 159.865 5.22482 159.865 5.04733V2.2785H162.907V5.04733C162.907 5.18932 162.942 5.26032 163.084 5.26032H164.074V7.88715H162.942C162.974 7.9401 163.002 7.98989 163.029 8.03746C163.093 8.1492 163.151 8.2491 163.225 8.34862C163.543 8.84559 163.862 9.34256 164.145 9.83953C164.18 9.87503 164.18 9.94602 164.18 9.98152V14.0638C163.935 13.8794 163.702 13.695 163.46 13.5037C163.283 13.3638 163.101 13.2198 162.907 13.0698C162.836 15.0577 162.836 17.0101 162.836 18.998Z" fill="#181818"/>
<path d="M46.6509 13.2828H39.1175C39.5773 11.4546 40.0282 9.62639 40.4792 7.79817C40.9301 5.97014 41.3811 4.14203 41.8408 2.314H49.3035C49.0088 3.53279 48.714 4.74763 48.4193 5.96248C47.8299 8.39193 47.2403 10.8218 46.6509 13.2828Z" fill="#181818"/>
<path d="M181.51 15.3417V12.2179H179.176V9.59104H187.028C187.039 9.59104 187.051 9.59013 187.064 9.58919C187.131 9.58423 187.21 9.5783 187.24 9.69754L188.089 12.1469V12.2179H186.073V14.3832C186.356 14.3359 186.635 14.2886 186.914 14.2412C187.472 14.1466 188.03 14.0519 188.619 13.9573C188.569 14.4828 188.526 15.0002 188.484 15.5134L188.484 15.516C188.438 16.0765 188.392 16.632 188.337 17.1876L188.33 17.1888C185.22 17.7564 182.109 18.3239 178.964 18.8915V15.9096C179.813 15.6967 180.662 15.5192 181.51 15.3417Z" fill="#181818"/>
<path d="M53.8307 18.856H50.3292C51.744 13.3538 53.1587 7.85165 54.6088 2.314H58.181C57.4561 5.06457 56.7312 7.82401 56.0062 10.5835L56.0058 10.5852C55.2807 13.3451 54.5557 16.105 53.8307 18.856Z" fill="#181818"/>
<path d="M200.609 8.98758V6.00577C200.875 5.89928 201.131 5.78391 201.387 5.66854C201.644 5.55317 201.9 5.43781 202.166 5.33131L203.651 4.69235C204.394 4.37287 205.137 4.05339 205.915 3.73391C206.48 3.48543 207.046 3.23694 207.577 2.98846C208.072 2.77547 208.567 2.56249 209.027 2.3495C209.204 2.2785 209.31 2.314 209.451 2.385C209.724 2.49766 209.995 2.61032 210.265 2.72257C211.185 3.10547 212.094 3.48355 213.024 3.84041C213.554 4.05339 214.085 4.27525 214.615 4.49712C215.146 4.71898 215.676 4.94084 216.207 5.15382C216.542 5.29565 216.869 5.42862 217.196 5.56158L217.197 5.56205C217.524 5.69516 217.851 5.82828 218.187 5.97027C218.223 5.97027 218.294 6.04127 218.294 6.07677V8.98758C218.011 8.88109 217.763 8.7746 217.515 8.6681C217.038 8.47286 216.552 8.2865 216.065 8.10014C215.579 7.91377 215.093 7.72741 214.615 7.53217L212.175 6.57373C211.804 6.42481 211.433 6.28214 211.065 6.14047C210.555 5.94453 210.05 5.75027 209.558 5.5443C209.275 5.43781 209.062 5.4733 208.779 5.5798C208.178 5.86378 207.542 6.11226 206.905 6.36075C206.534 6.52049 206.171 6.67135 205.809 6.82222C205.446 6.97308 205.083 7.12395 204.712 7.28369C204.412 7.4079 204.102 7.53212 203.793 7.65634C203.483 7.7806 203.174 7.90487 202.873 8.02914C202.555 8.17112 202.228 8.30423 201.9 8.43734C201.573 8.57047 201.246 8.70359 200.928 8.84559C200.912 8.85357 200.894 8.86334 200.875 8.8741C200.807 8.91121 200.719 8.96006 200.609 8.98758Z" fill="#181818"/>
</svg>
