<svg width="48" height="48" viewBox="0 0 48 48" fill="none" xmlns="http://www.w3.org/2000/svg">
<g clip-path="url(#clip0)">
<path d="M24.5462 22.032C24.4761 21.9613 24.3359 21.9613 24.2658 22.032L22.8637 23.4442C22.7936 23.5148 22.7936 23.6561 22.8637 23.7267L30.7154 31.6354C32.1175 33.0476 32.1175 35.3073 30.7154 36.7195C29.3133 38.1318 27.07 38.1318 25.6679 36.7195C24.2658 35.3073 24.2658 33.0476 25.6679 31.6354L26.7896 30.5056C26.8597 30.4349 26.8597 30.2937 26.7896 30.2231L25.3875 28.8108C25.3174 28.7402 25.1772 28.7402 25.1071 28.8108L23.9854 29.9407C21.672 32.2709 21.672 36.084 23.9854 38.4143C26.2989 40.7445 30.0845 40.7445 32.3979 38.4143C34.7114 36.084 34.7114 32.2709 32.3979 29.9407L24.5462 22.032Z" fill="#1C293F"/>
<path d="M38.2166 7.13254C38.7774 7.55622 39.4084 7.62683 39.8991 7.13254C40.3898 6.63824 40.3898 5.8615 39.8991 5.43782C30.5752 -2.32965 16.6946 -1.76474 8.00164 7.06192C0.149962 14.9706 -1.11191 27.0455 4.28611 36.2252C5.26757 37.9906 6.52945 37.2844 7.3006 36.5783L25.6679 18.1482C27.9814 15.818 27.9814 12.0049 25.6679 9.67462C23.3545 7.34438 19.5688 7.34438 17.2554 9.67462C14.942 12.0049 14.942 15.818 17.2554 18.1482L18.7977 19.7017C18.8678 19.7723 19.008 19.7723 19.0781 19.7017L20.4802 18.2894C20.5503 18.2188 20.5503 18.0776 20.4802 18.007L18.9379 16.4535C17.5358 15.0412 17.5358 12.7816 18.9379 11.3693C20.34 9.95707 22.5833 9.95707 23.9854 11.3693C25.3875 12.7816 25.3875 15.0412 23.9854 16.4535L6.03872 34.4599C1.55205 26.2688 2.74382 15.6768 9.68414 8.75664C17.4657 0.847949 29.8041 0.353655 38.2166 7.13254Z" fill="#1C293F"/>
<path d="M45.3672 11.793C44.3857 10.0277 43.1238 10.6632 42.3527 11.4399L29.1731 24.7152C29.103 24.7859 29.103 24.9271 29.1731 24.9977L30.5752 26.41C30.6453 26.4806 30.7855 26.4806 30.8556 26.41L43.6146 13.5583C48.1012 21.7495 46.9095 32.3415 39.9691 39.2616C31.6267 47.6646 18.0265 47.6646 9.61399 39.2616C9.51822 39.1651 9.43175 39.0774 9.35332 38.9979C8.84769 38.4852 8.67588 38.311 8.4974 38.3038C8.40553 38.3001 8.31189 38.3406 8.17006 38.402C8.16085 38.406 8.15143 38.4101 8.1418 38.4142C7.86138 38.4849 7.30055 38.6967 6.80982 38.9085C6.5995 38.9791 6.24898 39.1204 6.45929 39.3322C6.87992 39.8971 7.37065 40.3914 7.93148 40.9563C17.2554 50.3479 32.3979 50.3479 41.7217 40.9563C49.5734 33.0476 50.7652 21.0433 45.3672 11.793Z" fill="#1C293F"/>
</g>
<defs>
<clipPath id="clip0">
<rect width="48" height="48" fill="white"/>
</clipPath>
</defs>
</svg>
